<svg id="Teamwork.com" xmlns="http://www.w3.org/2000/svg" viewBox="0 0 144.39 121.62"><defs><style>.cls-1{fill:#65d656;}.cls-2{fill:#3b93f7;}</style></defs><title>teamwork-mark</title><path class="cls-1" d="M75.4,55.84c3.36,5.08,3.72,11.81-.2,14.69-4.38,3.21-10.48,1.37-14-4-3.69-5.59-4-11.77.11-14.78C65.52,48.57,71.85,50.48,75.4,55.84Z" transform="translate(-38.81 -50.19)"/><path class="cls-2" d="M122.09,67.19c4,4.7,4.29,11.32.52,14.54-4.13,3.53-10.56,1.79-14.36-2.82-4.11-5-4.23-11.29-.37-14.6S118,62.36,122.09,67.19Z" transform="translate(-38.81 -50.19)"/><path class="cls-1" d="M50.64,82.78c-.45,5.85.21,10-1,10.85-1.86,1.38-5.49-.83-8.6,2A6.69,6.69,0,0,0,38.81,101a7.77,7.77,0,0,0,3,6.19c3.76,2.87,6,1.3,8,3.46a5.1,5.1,0,0,1,.94,3.47c-.23,10-.16,33,0,34.59.26,3,.79,15.8,6.81,20s12,3.37,18.71,2c6.93-1.45,23.44-5.3,23.44-5.3-4.72-2-7-2.71-9.11-5.57A16.37,16.37,0,0,1,88.25,153c-.4-3.66-1.51-36.68-1.49-37.33,0-.82.06-2.72,3.27-2.65a54.48,54.48,0,0,0,5.49.07c1.62-.2,3.3-2.42,3.3-5.05,0-5.67-6-6.85-6.88-6.91s-4.41-.55-5.35-2.22c-1.4-2.5-.76-6.94-1-9.27A14,14,0,0,0,78,78.16a50.41,50.41,0,0,0-16.57-4.51C53.66,73,51,78.2,50.64,82.78Z" transform="translate(-38.81 -50.19)"/><path class="cls-2" d="M101.52,98.42c.51,11.07,2,39.23,2.77,45.64.36,3,1.34,10.59,3.79,13.84s5.09,5.36,11.17,5.87,22.24-3,26.14-3.38c0,0-3.62-.75-5.35-3.35s-3.28-5.32-4.5-16c-1.31-11.55-3.37-38.12-3.9-42-.25-1.86-.55-7-5.12-9.91-3.48-2.21-13.7-4.63-17.37-4C104,85.49,101.11,89.7,101.52,98.42Z" transform="translate(-38.81 -50.19)"/><path class="cls-2" d="M151.54,77c3,4.36,2.6,9.74-.47,12.08-3.43,2.62-8.48,1-11.45-3.19s-2.68-9.59.41-12C143.47,71.2,148.63,72.83,151.54,77Z" transform="translate(-38.81 -50.19)"/><path class="cls-2" d="M172.51,74.84c2.55,3.76,2.34,8.54-.22,10.75s-7.08,1.4-9.94-2.86c-2.42-3.61-2.3-8.41.36-10.67C165.57,69.64,170,71.15,172.51,74.84Z" transform="translate(-38.81 -50.19)"/><path class="cls-2" d="M142.53,91.59c-.64,0-3.54-.15-5.16,2.09a7.68,7.68,0,0,0-1.24,4.71c.29,4,1.31,16.85,2.48,28.18.88,8.5,2,16.13,2.37,18.41a72.55,72.55,0,0,0,4.39,15.41s27.33-4.81,29.35-5.25c1.84-.4,8.27-1.4,8.45-11.6.09-5.08-1.54-15.12-2.73-25-1.42-11.8-2.93-22.72-2.93-22.72A8.43,8.43,0,0,0,172,89.14,28.63,28.63,0,0,0,165.55,88c-4.69-.51-4.61,4.17-4.44,6.17.41,4.79,4.88,51.12,4.94,51.67a9.56,9.56,0,0,1,0,3.48c-.22.59-1.29,1.25-1.86.67-.79-.79-1.13-3.15-1.33-5.05-.11-1-1.07-9.34-2.07-18.47-1.24-11.3-2.57-23.81-2.79-25.14a9.65,9.65,0,0,0-6.17-8A44.81,44.81,0,0,0,142.53,91.59Z" transform="translate(-38.81 -50.19)"/></svg>